<?xml version="1.0" encoding="utf-8"?>
<!-- Generator: Adobe Illustrator 22.0.0, SVG Export Plug-In . SVG Version: 6.00 Build 0)  -->
<svg version="1.1" id="Layer_1" xmlns="http://www.w3.org/2000/svg" xmlns:xlink="http://www.w3.org/1999/xlink" x="0px" y="0px"
	 viewBox="0 0 85 160" style="enable-background:new 0 0 85 160;" xml:space="preserve">
<style type="text/css">
	.st0{fill:none;stroke:#FFFFFF;stroke-width:2;stroke-miterlimit:10;}
	.st1{fill:none;stroke:#FFFFFF;stroke-miterlimit:10;}
</style>
<path class="st0" d="M1.9,144.8v-129v-2.5C1.9,6.5,7.4,1,14.2,1h57.5C78.5,1,84,6.5,84,13.3v2.5v129v1.6c0,6.8-5.5,12.3-12.3,12.3
	H14.2c-6.8,0-12.3-5.5-12.3-12.3V144.8z"/>
<path class="st1" d="M10.9,28.9V20v-0.4c0-1.2,1-2.2,2.2-2.2h10.1c1.2,0,2.2,1,2.2,2.2V20v8.8v0.3c0,1.2-1,2.2-2.2,2.2H13.1
	c-1.2,0-2.2-1-2.2-2.2V28.9z"/>
<path class="st1" d="M27.7,28.9V20v-0.4c0-1.2,1-2.2,2.2-2.2H40c1.2,0,2.2,1,2.2,2.2V20v8.8v0.3c0,1.2-1,2.2-2.2,2.2H29.9
	c-1.2,0-2.2-1-2.2-2.2V28.9z"/>
<path class="st1" d="M44.5,28.9V20v-0.4c0-1.2,1-2.2,2.2-2.2h10.1c1.2,0,2.2,1,2.2,2.2V20v8.8v0.3c0,1.2-1,2.2-2.2,2.2H46.7
	c-1.2,0-2.2-1-2.2-2.2V28.9z"/>
<path class="st1" d="M61.3,28.9V20v-0.4c0-1.2,1-2.2,2.2-2.2h10.1c1.2,0,2.2,1,2.2,2.2V20v8.8v0.3c0,1.2-1,2.2-2.2,2.2H63.5
	c-1.2,0-2.2-1-2.2-2.2V28.9z"/>
<path class="st1" d="M10.9,49.4v-8.8v-0.4c0-1.2,1-2.2,2.2-2.2h10.1c1.2,0,2.2,1,2.2,2.2v0.4v8.8v0.3c0,1.2-1,2.2-2.2,2.2H13.1
	c-1.2,0-2.2-1-2.2-2.2V49.4z"/>
<path class="st1" d="M27.7,49.4v-8.8v-0.4c0-1.2,1-2.2,2.2-2.2H40c1.2,0,2.2,1,2.2,2.2v0.4v8.8v0.3c0,1.2-1,2.2-2.2,2.2H29.9
	c-1.2,0-2.2-1-2.2-2.2V49.4z"/>
<path class="st1" d="M44.5,49.4v-8.8v-0.4c0-1.2,1-2.2,2.2-2.2h10.1c1.2,0,2.2,1,2.2,2.2v0.4v8.8v0.3c0,1.2-1,2.2-2.2,2.2H46.7
	c-1.2,0-2.2-1-2.2-2.2V49.4z"/>
<path class="st1" d="M61.3,49.4v-8.8v-0.4c0-1.2,1-2.2,2.2-2.2h10.1c1.2,0,2.2,1,2.2,2.2v0.4v8.8v0.3c0,1.2-1,2.2-2.2,2.2H63.5
	c-1.2,0-2.2-1-2.2-2.2V49.4z"/>
<path class="st1" d="M10.8,69.9v-8.8v-0.4c0-1.2,1-2.2,2.2-2.2h10.1c1.2,0,2.2,1,2.2,2.2v0.4v8.8v0.3c0,1.2-1,2.2-2.2,2.2H13
	c-1.2,0-2.2-1-2.2-2.2V69.9z"/>
<path class="st1" d="M27.6,69.9v-8.8v-0.4c0-1.2,1-2.2,2.2-2.2h10.1c1.2,0,2.2,1,2.2,2.2v0.4v8.8v0.3c0,1.2-1,2.2-2.2,2.2H29.8
	c-1.2,0-2.2-1-2.2-2.2V69.9z"/>
<path class="st1" d="M62.4,4.3c0,3.2-2.6,5.8-5.8,5.8H29.8C26.6,10,24,7.5,24,4.3"/>
<path class="st1" d="M6,141.9V18.2v-2.3C6,9.5,11.1,4.3,17.5,4.3h51.6c6.4,0,11.6,5.2,11.6,11.6v2.3v123.7v1.5
	c0,6.4-5.2,11.6-11.6,11.6H17.5C11.1,155,6,149.8,6,143.4V141.9z"/>
</svg>
